<svg xmlns="http://www.w3.org/2000/svg" xmlns:xlink="http://www.w3.org/1999/xlink" width="100%" height="100%" viewBox="0 0 386.83 382.672">
  <defs>
    <filter id="Path_1224" x="0" y="0" width="386.83" height="382.672" filterUnits="userSpaceOnUse">
      <feOffset dy="3" input="SourceAlpha"/>
      <feGaussianBlur stdDeviation="5" result="blur"/>
      <feFlood flood-color="#ebebeb"/>
      <feComposite operator="in" in2="blur"/>
      <feComposite in="SourceGraphic"/>
    </filter>
  </defs>
  <g transform="matrix(1, 0, 0, 1, 0, 0)" filter="url(#Path_1224)">
    <path id="Path_1224-2" data-name="Path 1224" d="M50,0s64.99-6.162,126.99-6.162S298,0,298,0a50,50,0,0,1,50,50s4.494,59.676,4.494,120.176S348,292,348,292a50,50,0,0,1-50,50s-59.01,4.51-121.01,4.51S50,342,50,342A50,50,0,0,1,0,292s-4.336-61.324-4.336-121.824S0,50,0,50A50,50,0,0,1,50,0Z" transform="translate(19.34 18.16)" fill="#fff"/>
  </g>
</svg>
