<svg xmlns="http://www.w3.org/2000/svg" width="76.678" height="87.064" viewBox="0 0 76.678 87.064">
  <g id="Group_126" data-name="Group 126" transform="translate(-977.17 -851.671)">
    <path id="Path_1255" data-name="Path 1255" d="M380.929,109.872v-7.616A12.32,12.32,0,0,0,368.623,89.95H337.045a12.322,12.322,0,0,0-12.315,12.306v62.451a12.322,12.322,0,0,0,12.315,12.306h31.578a12.32,12.32,0,0,0,12.306-12.306v-9.587a22.311,22.311,0,0,1-2.675,0v8.293H327.405v-59.82h50.849v6.278A22.314,22.314,0,0,1,380.929,109.872Zm-2.773,56.217a9.652,9.652,0,0,1-9.533,8.249H337.045a9.654,9.654,0,0,1-9.542-8.249Zm-50.662-65.171a9.66,9.66,0,0,1,9.551-8.293h31.578a9.657,9.657,0,0,1,9.542,8.293Zm21.456-4.093a.856.856,0,1,1-.856-.856A.856.856,0,0,1,348.951,96.826Zm3.13,0a.852.852,0,1,1-.847-.856A.849.849,0,0,1,352.081,96.826Zm3.139,0a.852.852,0,1,1-.856-.856A.856.856,0,0,1,355.22,96.826Zm3.139,0a.856.856,0,1,1-.856-.856A.856.856,0,0,1,358.359,96.826Zm-2.247,73.384a3.282,3.282,0,1,1-3.282-3.291A3.279,3.279,0,0,1,356.111,170.209Zm24.818-46.39a9.169,9.169,0,0,0-2.675,0,8.782,8.782,0,0,0,0,17.354,9.17,9.17,0,0,0,2.675,0,8.78,8.78,0,0,0,0-17.354Zm0,14.366a5.654,5.654,0,0,1-2.675,0,5.846,5.846,0,0,1,0-11.379,5.654,5.654,0,0,1,2.675,0,5.843,5.843,0,0,1,0,11.379Zm19.378-1.739-2.979-1.721a17.837,17.837,0,0,0,0-4.468l2.979-1.712a2.187,2.187,0,0,0,1.008-2.515,22.664,22.664,0,0,0-5.253-9.1,2.2,2.2,0,0,0-2.693-.392l-2.979,1.721a17.573,17.573,0,0,0-3.861-2.238v-3.433a2.211,2.211,0,0,0-1.694-2.14,23.049,23.049,0,0,0-3.906-.571,22.314,22.314,0,0,0-2.675,0,23.181,23.181,0,0,0-3.906.571,2.2,2.2,0,0,0-1.685,2.14v3.433a17.634,17.634,0,0,0-3.87,2.238l-2.979-1.721a2.194,2.194,0,0,0-2.684.392,22.683,22.683,0,0,0-5.261,9.1,2.2,2.2,0,0,0,1.008,2.515l2.987,1.712a17.837,17.837,0,0,0,0,4.468l-2.987,1.721a2.2,2.2,0,0,0-1.008,2.515,22.683,22.683,0,0,0,5.261,9.1,2.206,2.206,0,0,0,2.684.392l2.979-1.721a18,18,0,0,0,3.87,2.238v3.433a2.2,2.2,0,0,0,1.685,2.14,23.181,23.181,0,0,0,3.906.571,22.311,22.311,0,0,0,2.675,0,23.181,23.181,0,0,0,3.906-.571,2.211,2.211,0,0,0,1.694-2.14v-3.433a17.935,17.935,0,0,0,3.861-2.238l2.979,1.721a2.217,2.217,0,0,0,2.693-.392,22.665,22.665,0,0,0,5.253-9.1A2.187,2.187,0,0,0,400.308,136.447Zm-5.984,9.185-4.227-2.443a15.779,15.779,0,0,1-6.492,3.745v4.887a18.362,18.362,0,0,1-2.675.366,19.137,19.137,0,0,1-2.675,0,18.08,18.08,0,0,1-2.666-.366v-4.887a15.746,15.746,0,0,1-6.492-3.745l-4.236,2.443a19.818,19.818,0,0,1-4.013-6.947l4.236-2.443a15.914,15.914,0,0,1,0-7.5l-4.236-2.443a19.859,19.859,0,0,1,4.013-6.938L369.1,121.8a15.761,15.761,0,0,1,6.492-3.754v-4.887a19.332,19.332,0,0,1,2.666-.357,19.133,19.133,0,0,1,2.675,0,19.642,19.642,0,0,1,2.675.357v4.887A15.818,15.818,0,0,1,390.1,121.8l4.227-2.443a19.723,19.723,0,0,1,4.013,6.938l-4.227,2.443a15.914,15.914,0,0,1,0,7.5l4.227,2.443A19.682,19.682,0,0,1,394.324,145.632Zm-42.24-32.973H330.929a1.338,1.338,0,0,1,0-2.675h21.155a1.338,1.338,0,0,1,0,2.675Zm-5.825,5.92h-15.33a1.338,1.338,0,0,1,0-2.675h15.33a1.338,1.338,0,1,1,0,2.675Zm5.825,5.92H330.929a1.338,1.338,0,0,1,0-2.675h21.155a1.338,1.338,0,0,1,0,2.675Z" transform="translate(652.44 761.721)" fill="#ff0000"/>
  </g>
</svg>
