<svg xmlns="http://www.w3.org/2000/svg" width="77.378" height="84.25" viewBox="0 0 77.378 84.25">
  <g id="Group_133" data-name="Group 133" transform="translate(-472.622 -878.281)">
    <path id="Path_1251" data-name="Path 1251" d="M225.306,145.091v-23.9a7.922,7.922,0,0,0-2.315-5.592l-13.836-13.836a7.812,7.812,0,0,0-5.532-2.288H164.139a2.016,2.016,0,0,0-2.019,2.019V181.7a2.016,2.016,0,0,0,2.019,2.019h59.148a2.016,2.016,0,0,0,2.019-2.019V162.784l-3.244,4.2v11.476a2.021,2.021,0,0,1-2.019,2.019h-52.66a2.025,2.025,0,0,1-2.019-2.019V104.733a2.025,2.025,0,0,1,2.019-2.019h32.949a2.021,2.021,0,0,1,2.019,2.019v15.68a2.016,2.016,0,0,0,2.019,2.019h15.674a2.016,2.016,0,0,1,2.019,2.019v24.79ZM206.94,119.868a2.021,2.021,0,0,1-2.019-2.019V102.142a2.566,2.566,0,0,1,1.218.686l15.822,15.822a2.586,2.586,0,0,1,.693,1.218Zm4.522,51.913a1.194,1.194,0,0,1-.767.66,9.014,9.014,0,0,1-9.482-2.793c-.841-.976-1.945-2.766-3.479-2.174-1.73.666-2.18,2.813-2.577,4.408a1.277,1.277,0,0,1-2.308.3q-2.019-4.23-4.038-8.466c-.491-1.03-.969-2.053-1.42-3.1-.511-1.164-1.077.619-1.117,1.1-.2,2.5.081,5.142-1.077,7.356a6.427,6.427,0,0,1-3.587,3.042,6.761,6.761,0,0,1-4.711-.182,2.035,2.035,0,0,1-.734-.464,1.232,1.232,0,0,1-.148-1.393,1.329,1.329,0,0,1,1.252-.646,4.081,4.081,0,0,1,.962.3,3.914,3.914,0,0,0,4.092-.935,5.1,5.1,0,0,0,1.2-2.685,23.131,23.131,0,0,0,.168-2.975,11.924,11.924,0,0,1,1.366-5.72,2.96,2.96,0,0,1,1.5-1.407c1.218-.4,1.723.673,2.154,1.588,1.09,2.355,2.335,4.65,3.3,7.06.276.6.559,1.191.841,1.783a8.043,8.043,0,0,0,.882,1.689,10.721,10.721,0,0,1,2.026-2.429,4.362,4.362,0,0,1,5.283.108c1.427,1.11,2.254,2.786,3.849,3.688a6.419,6.419,0,0,0,4.529.673c.2-.04.4-.094.606-.155A1.25,1.25,0,0,1,211.463,171.781Zm26.953-33.292-2.551-2.032a2.826,2.826,0,0,0-2.113-.612,2.868,2.868,0,0,0-1.925,1.063l-6.521,8.183-1.9,2.382L211.988,161.8a.935.935,0,0,0-.215.525l-.646,6.407a1.025,1.025,0,0,0,.37.888.994.994,0,0,0,.633.222,1.084,1.084,0,0,0,.323-.054l6.111-2.046a1.006,1.006,0,0,0,.471-.33l4.374-5.485,1.9-2.382,13.567-17.02A2.875,2.875,0,0,0,238.415,138.489Zm-13.11,17.82-1.9,2.382-5.767,7.234-4.347,1.454.458-4.556,9.657-12.114,1.9-2.382,4.906-6.158,3.876,3.123Zm11.986-15.041-1.945,2.443-3.876-3.123,1.931-2.423a.876.876,0,0,1,.579-.316.843.843,0,0,1,.626.182l2.551,2.032A.856.856,0,0,1,237.291,141.269Z" transform="translate(310.502 778.811)" fill="#ff0000"/>
  </g>
</svg>
