<svg xmlns="http://www.w3.org/2000/svg" width="98.657" height="93.067" viewBox="0 0 98.657 93.067">
  <path id="Path_1253" data-name="Path 1253" d="M488.136,37.238l-1.292,1.083a1.3,1.3,0,0,1-1.324.2l-1.216-.508a39.229,39.229,0,1,1-16.691-19.873l-.3-1.323a1.3,1.3,0,0,1,.431-1.269L469,14.494a43.1,43.1,0,1,0,19.136,22.744ZM469.2,73.986a30.88,30.88,0,0,0,4.72-38.274l-2.81,2.357a27.289,27.289,0,1,1-5.8-6.892l2.809-2.357a30.882,30.882,0,0,0-42.09,1,30.926,30.926,0,0,0-2.069,41.914c.5.591,1.029,1.185,1.583,1.746a30.862,30.862,0,0,0,43.658.5ZM464.38,64.6a20.912,20.912,0,0,0,4.075-15.563,21.154,21.154,0,0,0-2.2-6.886l-2.779,2.331a17.009,17.009,0,0,1,1.486,5.035,17.323,17.323,0,0,1-3.389,12.956,17.5,17.5,0,1,1-3.887-24.89l2.77-2.324c-.044-.031-.1-.072-.138-.1A21.017,21.017,0,1,0,464.38,64.6Zm-5.36-9.51a11.724,11.724,0,0,0-.12-6.769l-2.711,2.275a8.632,8.632,0,0,1-.235,3.641,8.664,8.664,0,0,1-10.664,6.008,8.66,8.66,0,0,1,4.666-16.679,3.241,3.241,0,0,1,.426.147l2.72-2.283a11.448,11.448,0,0,0-2.3-.914,11.816,11.816,0,1,0,8.214,14.574Zm44.156-31.272a1.3,1.3,0,0,0-.781-.991l-8.75-3.661.522-.439a4.5,4.5,0,1,0-5.789-6.9l-.562.471L485.7,2.932a1.281,1.281,0,0,0-2.084-.7L467.739,15.553a1.3,1.3,0,0,0-.431,1.269l.3,1.323,2.105,9.336L445.6,47.719a4.5,4.5,0,1,0,5.79,6.9l24.159-20.272,8.756,3.671,1.216.508a1.3,1.3,0,0,0,1.324-.2L502.723,25A1.29,1.29,0,0,0,503.175,23.814Zm-31.3,1.554L470.7,20.187,470,17.02l7.707-6.468,1.933,7.868a1.023,1.023,0,0,0,.136.323Zm10.054-8.437L479.9,8.708l3.755-3.151,1.882,8.348Zm-32.2,35.716a1.93,1.93,0,0,1-2.481-2.957l42.778-35.9a1.93,1.93,0,0,1,2.482,2.957Zm36.057-16.8L482.84,34.61,477.9,32.543l7.9-6.624a1,1,0,0,0,.293.189l7.414,3.271Zm9.906-8.312-7.747-3.426,3.608-3.028,7.894,3.3Z" transform="translate(-404.533 -1.922)" fill="#ff0000"/>
</svg>
