<svg xmlns="http://www.w3.org/2000/svg" width="87.064" height="86.905" viewBox="0 0 87.064 86.905">
  <path id="Path_1252" data-name="Path 1252" d="M233.069,90.789a5.257,5.257,0,1,0,5.263,5.25A5.251,5.251,0,0,0,233.069,90.789Zm0,0a5.257,5.257,0,1,0,5.263,5.25A5.251,5.251,0,0,0,233.069,90.789Zm0,0a5.257,5.257,0,1,0,5.263,5.25A5.251,5.251,0,0,0,233.069,90.789Zm0,0a5.257,5.257,0,1,0,5.263,5.25A5.251,5.251,0,0,0,233.069,90.789Zm0,0a5.257,5.257,0,1,0,5.263,5.25A5.251,5.251,0,0,0,233.069,90.789Zm0,0a5.257,5.257,0,1,0,5.263,5.25A5.251,5.251,0,0,0,233.069,90.789Zm0,0a5.257,5.257,0,1,0,5.263,5.25A5.251,5.251,0,0,0,233.069,90.789Zm17.083,13.126c-.327-7.04-1.437-13.2-6.609-18.35-5.133-5.146-11.3-6.308-18.337-6.661-7.262-.418-29.151-.418-36.413,0-7.027.34-13.217,1.5-18.376,6.648s-6.191,11.324-6.543,18.363c-.418,7.262-.5,28.916-.091,36.178.34,7.04,1.463,13.452,6.635,18.585s11.245,6.152,18.3,6.5c7.262.418,29.164.418,36.426,0,7.053-.327,13.27-1.332,18.4-6.5,5.146-5.133,6.452-11.35,6.8-18.389C250.766,133.027,250.57,111.176,250.152,103.914ZM244.327,149.3c-1.528,3.853-4.937,8.163-8.8,9.717-5.786,2.3-22.151,2.273-28.55,2.273s-22.752,0-28.524-2.273a14.861,14.861,0,0,1-8.359-8.359c-2.286-5.786-2.246-22.138-2.246-28.537s-.026-22.765,2.246-28.537a14.9,14.9,0,0,1,8.359-8.359c5.8-2.286,22.138-2.4,28.524-2.4s22.778.131,28.55,2.4a14.9,14.9,0,0,1,8.359,8.359c2.3,5.8,2.325,22.138,2.325,28.537S246.626,143.54,244.327,149.3ZM233.069,90.789a5.257,5.257,0,1,0,5.263,5.25A5.251,5.251,0,0,0,233.069,90.789Zm0,0a5.257,5.257,0,1,0,5.263,5.25A5.251,5.251,0,0,0,233.069,90.789Zm0,0a5.257,5.257,0,1,0,5.263,5.25A5.251,5.251,0,0,0,233.069,90.789Zm0,0a5.257,5.257,0,1,0,5.263,5.25A5.251,5.251,0,0,0,233.069,90.789Zm0,0a5.257,5.257,0,1,0,5.263,5.25A5.251,5.251,0,0,0,233.069,90.789Zm0,0a5.257,5.257,0,1,0,5.263,5.25A5.251,5.251,0,0,0,233.069,90.789Zm0,0a5.257,5.257,0,1,0,5.263,5.25A5.251,5.251,0,0,0,233.069,90.789Zm0,0a5.257,5.257,0,1,0,5.263,5.25A5.251,5.251,0,0,0,233.069,90.789Zm-26.082,22.516a8.744,8.744,0,1,0,8.751,8.738A8.746,8.746,0,0,0,206.987,113.305Zm0,0a8.744,8.744,0,1,0,8.751,8.738A8.746,8.746,0,0,0,206.987,113.305Zm0,0a8.744,8.744,0,1,0,8.751,8.738A8.746,8.746,0,0,0,206.987,113.305Zm0,0a8.744,8.744,0,1,0,8.751,8.738A8.746,8.746,0,0,0,206.987,113.305Zm0,0a8.744,8.744,0,1,0,8.751,8.738A8.746,8.746,0,0,0,206.987,113.305Zm0,0a8.744,8.744,0,1,0,8.751,8.738A8.746,8.746,0,0,0,206.987,113.305Zm0,0a8.744,8.744,0,1,0,8.751,8.738A8.746,8.746,0,0,0,206.987,113.305Zm0,0a8.744,8.744,0,1,0,8.751,8.738A8.746,8.746,0,0,0,206.987,113.305Zm21.654,2.3a22.652,22.652,0,0,0-5.237-9.077,1.549,1.549,0,0,0-.444-.34,22.4,22.4,0,0,1,5.76,9.9A1.623,1.623,0,0,0,228.641,115.6Zm0,12.891a.592.592,0,0,0,.039-.209,4.318,4.318,0,0,1-.157.549A2.588,2.588,0,0,0,228.641,128.495Zm-21.654-15.189a8.744,8.744,0,1,0,8.751,8.738A8.746,8.746,0,0,0,206.987,113.305Zm5.89-12.943a1.7,1.7,0,0,0-.666-.287,22.422,22.422,0,0,0-10.448,0,1.878,1.878,0,0,0-.666.287,22.53,22.53,0,0,1,11.781,0ZM185.345,115.6a1.622,1.622,0,0,0-.078.483,22.392,22.392,0,0,1,5.773-9.913,1.714,1.714,0,0,0-.457.353A22.5,22.5,0,0,0,185.345,115.6Zm0,12.891a2.591,2.591,0,0,0,.118.34,4.323,4.323,0,0,1-.157-.549A.592.592,0,0,0,185.345,128.495Zm21.641-15.189a8.744,8.744,0,1,0,8.751,8.738A8.746,8.746,0,0,0,206.987,113.305Zm0,0a8.744,8.744,0,1,0,8.751,8.738A8.746,8.746,0,0,0,206.987,113.305Zm0,0a8.744,8.744,0,1,0,8.751,8.738A8.746,8.746,0,0,0,206.987,113.305Zm0,0a8.744,8.744,0,1,0,8.751,8.738A8.746,8.746,0,0,0,206.987,113.305Zm0,0a8.744,8.744,0,1,0,8.751,8.738A8.746,8.746,0,0,0,206.987,113.305Zm0,0a8.744,8.744,0,1,0,8.751,8.738A8.746,8.746,0,0,0,206.987,113.305Zm20.649,12.682-2.978-1.711a16.949,16.949,0,0,0,0-4.454l2.978-1.724a2.151,2.151,0,0,0,1.084-2.011,22.4,22.4,0,0,0-5.76-9.9l-.013-.013a2.174,2.174,0,0,0-2.233-.039l-2.965,1.711a17.384,17.384,0,0,0-3.853-2.22V102.2a2.172,2.172,0,0,0-1.006-1.842h-.013a22.53,22.53,0,0,0-11.781,0h-.013a2.172,2.172,0,0,0-1.006,1.842v3.422a17.686,17.686,0,0,0-3.853,2.22l-2.965-1.711a2.18,2.18,0,0,0-2.22.039,22.392,22.392,0,0,0-5.773,9.913,2.151,2.151,0,0,0,1.084,2.011l2.965,1.724a18.148,18.148,0,0,0,0,4.454l-2.965,1.711a2.166,2.166,0,0,0-1.071,2.194.157.157,0,0,0,.026.1,4.323,4.323,0,0,0,.157.549,16.767,16.767,0,0,0,.823,2.22c.157.392.34.771.535,1.149s.4.784.627,1.162.444.744.692,1.11.5.731.758,1.084a22.345,22.345,0,0,0,1.685,2,2.181,2.181,0,0,0,2.677.392l2.965-1.711a18.287,18.287,0,0,0,3.853,2.233v3.422a2.205,2.205,0,0,0,1.685,2.129,22.774,22.774,0,0,0,10.448,0,2.191,2.191,0,0,0,1.685-2.129v-3.422a17.964,17.964,0,0,0,3.853-2.233l2.965,1.711a2.2,2.2,0,0,0,2.69-.392,24.757,24.757,0,0,0,1.685-2c.261-.353.509-.718.758-1.084s.47-.731.692-1.11.431-.771.627-1.162a20.261,20.261,0,0,0,1.006-2.312q.2-.509.353-1.058a4.318,4.318,0,0,0,.157-.549.157.157,0,0,0,.026-.1A2.166,2.166,0,0,0,227.636,125.987Zm-5.969,9.142-4.219-2.429a15.719,15.719,0,0,1-6.465,3.735v4.872a19.618,19.618,0,0,1-7.993,0v-4.872a15.771,15.771,0,0,1-6.465-3.735l-4.219,2.429a19.626,19.626,0,0,1-4-6.909l4.219-2.442a15.708,15.708,0,0,1,0-7.471l-4.219-2.429a19.681,19.681,0,0,1,4-6.922l4.219,2.429a15.788,15.788,0,0,1,6.465-3.735v-4.872a20.086,20.086,0,0,1,7.993,0v4.872a15.7,15.7,0,0,1,6.465,3.735l4.219-2.429a19.713,19.713,0,0,1,4.01,6.922l-4.219,2.429a16.047,16.047,0,0,1,0,7.471l4.219,2.442A19.658,19.658,0,0,1,221.667,135.129Z" transform="translate(-163.516 -78.59)" fill="#ff0000"/>
</svg>
