<svg xmlns="http://www.w3.org/2000/svg" width="88.375" height="82.018" viewBox="0 0 88.375 82.018">
  <g id="Group_132" data-name="Group 132" transform="translate(-703.702 -894.073)">
    <path id="Path_1248" data-name="Path 1248" d="M242.49,20.743a1.874,1.874,0,0,0-1.874-1.874h-11.43a1.877,1.877,0,0,0-1.888,1.874V91.435h-3.212V49.581a1.874,1.874,0,0,0-1.874-1.874h-11.43a1.877,1.877,0,0,0-1.888,1.874V91.435h-3.225V58.757a1.874,1.874,0,0,0-1.874-1.874h-11.43a1.877,1.877,0,0,0-1.888,1.874V91.435h-3.212v-23.5a1.874,1.874,0,0,0-1.874-1.874H173.96a1.877,1.877,0,0,0-1.888,1.874V79.769h3.762V69.807h7.681V91.435h-7.681V79.769h-3.762V91.435h-5.02V15.316a1.966,1.966,0,1,0-3.932,0V94.384a.99.99,0,0,0,.983.983h85.426a1.966,1.966,0,0,0,0-3.932H242.49V41.782m-3.749-8.861,0,8.861V91.435h-7.681V22.617h7.681V41.782ZM201.92,91.435h-7.681v-30.8h7.681Zm18.417,0h-7.681V51.455h7.681Zm3.3-67.205-1.022.826-3.395-4.116C218,40.956,197.621,57,172.1,57.734l-.039-1.311c24.932-.708,44.83-16.346,45.878-35.8l-4.1,3.906-.9-.944,5.7-5.44Z" transform="translate(540.582 880.723)" fill="#ff0000"/>
  </g>
</svg>
