<svg xmlns="http://www.w3.org/2000/svg" width="87.064" height="87.064" viewBox="0 0 87.064 87.064">
  <path id="Path_1244" data-name="Path 1244" d="M447.792,543.495H372.806a6.045,6.045,0,0,0-6.039,6.039V624.52a6.062,6.062,0,0,0,6.039,6.039h33.562a1.179,1.179,0,0,0,1.176-1.176v-1.008a1.179,1.179,0,0,0-1.176-1.176H372.806a2.681,2.681,0,0,1-2.679-2.679V560.579h80.345V624.52a2.681,2.681,0,0,1-2.679,2.679H414.44a1.179,1.179,0,0,0-1.176,1.176v1.008a1.179,1.179,0,0,0,1.176,1.176h33.353a6.045,6.045,0,0,0,6.039-6.039V549.534A6.04,6.04,0,0,0,447.792,543.495Zm-67.587,13.724H370.127v-7.685a2.681,2.681,0,0,1,2.679-2.679h7.4Zm70.266,0H383.565V546.855h64.227a2.681,2.681,0,0,1,2.679,2.679Zm-2.285-5.182a1.685,1.685,0,0,1-1.68,1.68h-7.862a1.68,1.68,0,0,1,0-3.36h7.862A1.679,1.679,0,0,1,448.187,552.037Zm-28.3,25.441a2.95,2.95,0,0,0-2.763-1.932,2.945,2.945,0,0,0-2.662,1.7l-12.976,27.767a2.941,2.941,0,0,0,2.662,4.183,2.945,2.945,0,0,0,2.662-1.7l12.977-27.767A2.91,2.91,0,0,0,419.891,577.477Zm-1.621,1.537L405.293,606.79a1.254,1.254,0,0,1-1.142.722,1.184,1.184,0,0,1-.529-.118,1.259,1.259,0,0,1-.613-1.671l12.977-27.776a1.261,1.261,0,0,1,2.285,1.067Zm-18.142,20.208-7.559-5.93a1.072,1.072,0,0,1,.017-1.705l7.492-5.6a2.941,2.941,0,1,0-3.519-4.712l-11.691,8.743a2.915,2.915,0,0,0-1.176,2.318,2.953,2.953,0,0,0,1.125,2.343L396.5,603.85a2.964,2.964,0,0,0,1.814.622,2.936,2.936,0,0,0,1.814-5.249Zm-.823,3.091a1.232,1.232,0,0,1-.991.479,1.219,1.219,0,0,1-.773-.269L385.85,593.36a1.241,1.241,0,0,1-.479-1.008,1.222,1.222,0,0,1,.5-.991l11.683-8.743a1.263,1.263,0,0,1,1.512,2.024l-9.247,6.912a1.072,1.072,0,0,0-.017,1.7l9.289,7.282A1.267,1.267,0,0,1,399.3,602.313Zm36.914-12.3-11.691-8.743a2.941,2.941,0,0,0-3.519,4.712l7.484,5.6a1.072,1.072,0,0,1,.025,1.705l-7.559,5.93a2.94,2.94,0,0,0,3.628,4.628l11.683-9.172a2.953,2.953,0,0,0,1.125-2.343A2.915,2.915,0,0,0,436.218,590.017Zm-.983,3.343-11.691,9.163a1.22,1.22,0,0,1-.773.269,1.232,1.232,0,0,1-.991-.479,1.267,1.267,0,0,1,.21-1.772l9.289-7.282a1.072,1.072,0,0,0-.025-1.7l-9.239-6.912a1.263,1.263,0,0,1,1.512-2.024l11.683,8.743a1.222,1.222,0,0,1,.5.991A1.241,1.241,0,0,1,435.236,593.36Z" transform="translate(-366.767 -543.495)" fill="#ff0000"/>
</svg>
