<svg xmlns="http://www.w3.org/2000/svg" width="38.004" height="38.004" viewBox="0 0 38.004 38.004">
  <g id="Group_115" data-name="Group 115" transform="translate(-353.728 -46.728)">
    <g id="Component_1_2" data-name="Component 1 – 2" transform="translate(353.728 46.728)">
      <path id="Path_1220" data-name="Path 1220" d="M3.987,3.987C8.628-.655,18.574-.426,18.574-.426S28.52-.655,33.162,3.987s4.412,14.588,4.412,14.588.229,9.946-4.412,14.588-14.588,4.412-14.588,4.412S8.628,37.8,3.987,33.162-.426,18.574-.426,18.574-.655,8.628,3.987,3.987Z" transform="translate(0.428 0.428)" fill="red"/>
    </g>
    <path id="phone" d="M24.068,1.183,19.093.033a1.546,1.546,0,0,0-1.767.893L15.032,6.281a1.548,1.548,0,0,0,.439,1.8l2.66,2.176a17.273,17.273,0,0,1-7.877,7.877l-2.176-2.66a1.548,1.548,0,0,0-1.8-.439L.927,17.332a1.54,1.54,0,0,0-.893,1.762l1.145,4.97a1.541,1.541,0,0,0,1.505,1.2A22.574,22.574,0,0,0,25.263,2.684,1.532,1.532,0,0,0,24.068,1.183ZM2.713,23.683,1.578,18.768l5.3-2.27L9.815,20.09A19.07,19.07,0,0,0,20.085,9.82L16.493,6.884l2.27-5.3,4.916,1.135A20.988,20.988,0,0,1,2.713,23.683Z" transform="translate(360.101 53.101)" fill="#fff"/>
  </g>
</svg>
