<svg xmlns="http://www.w3.org/2000/svg" width="16.201" height="16.151" viewBox="0 0 16.201 16.151">
  <path id="phone" d="M15.4,10.184a2.542,2.542,0,0,1-.541-.1A7.626,7.626,0,0,1,13.8,9.772a1.616,1.616,0,0,0-2,.808l-.178.364A9.839,9.839,0,0,1,9.466,9.328,9.839,9.839,0,0,1,7.851,7.179l.339-.226A1.616,1.616,0,0,0,9,4.95a8.345,8.345,0,0,1-.315-1.058c-.04-.178-.073-.364-.1-.549A2.423,2.423,0,0,0,6.162,1.331H3.739A2.423,2.423,0,0,0,1.316,4.085a15.348,15.348,0,0,0,13.345,13.3h.307a2.418,2.418,0,0,0,2.423-2.431V12.527A2.423,2.423,0,0,0,15.4,10.184Zm.4,4.847a.808.808,0,0,1-.275.606.848.848,0,0,1-.662.2A13.733,13.733,0,0,1,2.98,3.9a.88.88,0,0,1,.2-.662.808.808,0,0,1,.606-.275H6.211a.808.808,0,0,1,.808.638q.048.331.121.654a8.983,8.983,0,0,0,.372,1.252L6.38,6.032a.808.808,0,0,0-.4,1.074,11.7,11.7,0,0,0,5.655,5.655.856.856,0,0,0,1.074-.42l.5-1.131a11.059,11.059,0,0,0,1.276.372q.323.073.654.121a.808.808,0,0,1,.638.808Z" transform="translate(-1.24 -1.28)" fill="#fff" stroke="#fff" stroke-width="0.1"/>
</svg>
